# xmcd
#
# Track frame offsets:
#	150
#	15452
#	30478
#	49953
#	69383
#	87410
#	106140
#	124347
#	139649
#	156138
#	173528
#	188943
#	202948
#	222352
#	239923
#	257221
#	272509
#	290883
#	308749
#	327940
#
# Disc length: 4549 seconds
#
# Revision: 1
# Processed by: cddbd v1.5.1PL0 Copyright (c) Steve Scherf et al.
# Submitted via: audiograbber 1.83.01
#
DISCID=2611c314
DTITLE=Cristian and Ralf - As 20 Mais - Vol. 3
DYEAR=1900
DGENRE=Sertanejo
TTITLE0=Onde você for eu vou
TTITLE1=Caprichos de mulher
TTITLE2=Cheiro de shampoo
TTITLE3=Chora peito
TTITLE4=Chovendo estrelas
TTITLE5=Como tu
TTITLE6=Desejo de amar
TTITLE7=Escravo do amor
TTITLE8=Eu quero seu amor
TTITLE9=Minha gioconda
TTITLE10=Nova york
TTITLE11=O que tiver que vir virá
TTITLE12=Palavras são palavras
TTITLE13=Quem será seu outro amor
TTITLE14=Se o vento soprar
TTITLE15=Sensível demais
TTITLE16=Tribunal do amor
TTITLE17=Último adeus
TTITLE18=Um cantinho do seu coração
TTITLE19=Vestido de seda
EXTD=
EXTT0=
EXTT1=
EXTT2=
EXTT3=
EXTT4=
EXTT5=
EXTT6=
EXTT7=
EXTT8=
EXTT9=
EXTT10=
EXTT11=
EXTT12=
EXTT13=
EXTT14=
EXTT15=
EXTT16=
EXTT17=
EXTT18=
EXTT19=
PLAYORDER=
